# xmcd CD database file
#
# Track frame offsets:
#	150
#	13638
#	41196
#	62086
#	74410
#	87842
#	105113
#	113638
#	133013
#
# Disc length: 1939 seconds
#
# Revision: 0
# Processed by: cddbd v1.5.2PL0 Copyright (c) Steve Scherf et al.
# Submitted via: CDex 1.51
#
DISCID=71079109
DTITLE=Michalis Siganidis - O Mikros Aderfos
DYEAR=1988
DGENRE=Jazz
TTITLE0=Un Soir
TTITLE1=K1
TTITLE2=Filoptoxos
TTITLE3=Myrmigi
TTITLE4=O Viastis
TTITLE5=K2 [Ena Proi]
TTITLE6=Tzitzikas
TTITLE7=K3
TTITLE8=Odi Sta Poulia
EXTD=YEAR: 1988
EXTT0=
EXTT1=
EXTT2=
EXTT3=
EXTT4=
EXTT5=
EXTT6=
EXTT7=
EXTT8=
PLAYORDER=
